<?xml version="1.0" standalone="no"?>
<!DOCTYPE svg PUBLIC "-//W3C//DTD SVG 20010904//EN"
 "http://www.w3.org/TR/2001/REC-SVG-20010904/DTD/svg10.dtd">
<svg version="1.0" xmlns="http://www.w3.org/2000/svg"
 width="236.000000pt" height="236.000000pt" viewBox="0 0 236.000000 236.000000"
 preserveAspectRatio="xMidYMid meet">
<metadata>
Created by potrace 1.11, written by Peter Selinger 2001-2013
</metadata>
<g transform="translate(0.000000,236.000000) scale(0.100000,-0.100000)"
fill="#000000" stroke="none">
<path d="M1508 2234 c-2 -1 -131 -7 -288 -13 -374 -15 -561 -30 -640 -51 -37
-10 -107 -76 -128 -120 -36 -77 -31 -175 12 -241 43 -64 172 -109 316 -109 55
0 93 -5 104 -13 16 -12 18 -55 20 -667 3 -569 5 -662 19 -705 53 -163 221
-241 376 -174 58 25 103 71 134 138 21 45 22 54 22 713 l0 668 25 24 c21 21
41 26 129 35 137 15 175 26 238 72 119 88 122 267 7 369 -66 58 -116 73 -236
75 -60 1 -109 1 -110 -1z"/>
</g>
</svg>
